<svg xmlns="http://www.w3.org/2000/svg" width="640" height="360" viewBox="0 0 640 360">
<rect width="640" height="360" fill="#f6efe5"/><circle cx="320" cy="195" r="125" fill="#d94c3d" opacity=".14"/>
<path d="M165 183h310c-8 85-67 127-155 127s-147-42-155-127z" fill="#ffffff" stroke="#9e2f25" stroke-width="9"/>
<path d="M202 181c25-30 55-44 92-44 31 0 50 12 77 12 29 0 48-9 72-28" fill="none" stroke="#2b7a4b" stroke-width="13" stroke-linecap="round"/>
<path d="M245 105c-18-20 11-37-2-57M320 102c-18-20 11-37-2-57M395 105c-18-20 11-37-2-57" fill="none" stroke="#9e2f25" stroke-width="8" stroke-linecap="round"/>
<text x="320" y="338" text-anchor="middle" fill="#0b1f3a" font-family="Arial" font-size="27" font-weight="700">MEXICAN CUISINE</text>
</svg>